<?xml version="1.0" encoding="UTF-8" standalone="no"?>
<svg width="128px" height="128px" viewBox="0 0 128 128" version="1.1" xmlns="http://www.w3.org/2000/svg" xmlns:xlink="http://www.w3.org/1999/xlink" xmlns:sketch="http://www.bohemiancoding.com/sketch/ns">
    <!-- Generator: Sketch 3.0 (7574) - http://www.bohemiancoding.com/sketch -->
    <title>Slice 1</title>
    <description>Created with Sketch.</description>
    <defs></defs>
    <g id="Page-1" stroke="none" stroke-width="1" fill="none" fill-rule="evenodd" sketch:type="MSPage">
        <g id="logo-+-Rectangle-1" sketch:type="MSLayerGroup" transform="translate(75.500000, 66.000000) rotate(-31.000000) translate(-75.500000, -66.000000) translate(16.000000, 15.000000)">
            <g id="logo">
                <g id="Shape_8_" fill="#010101" sketch:type="MSShapeGroup">
                    <g id="Shape-+-Rectangle-1">
                        <path d="M109.51328,26.8931707 C105.57972,23.3647317 100.16716,21.4216829 94.26972,21.4216829 C92.12488,21.4216829 90.32572,21.7323415 88.82468,22.1049024 C88.84208,20.7109512 88.8444,19.2539512 88.8444,17.725878 C88.8444,13.7056585 86.25876,8.0645122 73.93376,4.03397561 C65.97964,1.43178049 55.49788,0 44.4222,0 C33.34652,0 22.86592,1.43178049 14.9118,4.03397561 C2.58564,8.06336585 0,13.7056585 0,17.725878 C0,34.8820244 0.60088,48.5177561 3.53452,59.2990976 C6.38348,69.7663415 11.3622,77.7735366 20.17588,86.0673171 C25.69168,91.2533659 34.07616,94 44.42104,94 C54.76592,94 63.1504,91.2533659 68.66388,86.0650244 C75.3768,79.7486829 79.91704,73.3050976 83.375,65.1683659 C83.4214,65.0583171 83.5316,64.806122 84.41668,64.5264146 C85.78896,64.0999756 87.78416,64.0518293 89.175,64.0518293 C90.02064,64.0518293 90.89412,64.0736098 91.74672,64.0919512 C92.5854,64.1137317 93.44612,64.1309268 94.2732,64.1309268 C100.15556,64.1309268 105.69572,61.6697317 109.86476,57.1875366 C113.7612,53.0045366 116,47.4035122 116,41.8139512 C116,35.9469756 113.69856,30.647439 109.51328,26.8931707 L109.51328,26.8931707 Z M32,44.1741765 L27.2229091,44.1741765 L27.2229091,51.1784706 C27.2229091,51.8378824 27.3745455,52.3117647 27.6778182,52.599 C27.9810909,52.8851176 28.4861818,53.0281765 29.1930909,53.0281765 L32,53.0281765 L32,56 L28.9312727,56 C26.8356364,56 25.4174545,55.6468235 24.6778182,54.9371176 C23.9370909,54.2274118 23.5672727,52.9130588 23.5672727,50.9929412 L23.5672727,44.1752941 L20,44.1752941 L20,41.2023529 L23.5683636,41.2023529 L23.5683636,37 L27.2229091,37 L27.2229091,41.2012353 L32,41.2012353 L32,44.1741765 L32,44.1741765 Z M46.4319231,56 L43.4930769,50.9507692 L40.5680769,56 L36,56 L41.5292308,48.1803846 L36.4407692,41 L41.0088462,41 L43.4930769,45.4734615 L45.9911538,41 L50.5592308,41 L45.5238462,48.1803846 L51,56 L46.4319231,56 L46.4319231,56 Z M65,44.1741765 L60.2229091,44.1741765 L60.2229091,51.1784706 C60.2229091,51.8378824 60.3745455,52.3117647 60.6778182,52.599 C60.9810909,52.8851176 61.4861818,53.0281765 62.1941818,53.0281765 L65,53.0281765 L65,56 L61.9323636,56 C59.8356364,56 58.4185455,55.6468235 57.68,54.9371176 C56.9392727,54.2274118 56.5694545,52.9130588 56.5694545,50.9929412 L56.5694545,44.1752941 L53,44.1752941 L53,41.2023529 L56.5683636,41.2023529 L56.5683636,37 L60.2229091,37 L60.2229091,41.2012353 L65,41.2012353 L65,44.1741765 L65,44.1741765 Z M44,27 C26.3266909,27 12,22.7462353 12,17.5 C12,12.2537647 26.3266909,8 44,8 C61.6733091,8 76,12.2537647 76,17.5 C76,22.7462353 61.6733091,27 44,27 L44,27 Z M96.930375,51.3664667 C96.685125,51.3925333 96.408375,51.4038667 96.113625,51.4038667 C94.731,51.4038667 92.87925,51.1738 91.10175,51.1738 C89.557125,51.1738 88.067625,51.3460667 87,52 C87.257625,49.8557333 88.3005,42.361 88.452375,39.9096 C89.923875,37.1374667 92.871375,35 96.930375,35 C101.832,35 105,37.9036 105,42.395 C105,47.1754 101.288625,50.9154 96.930375,51.3664667 L96.930375,51.3664667 Z" id="Shape"></path>
                        <rect id="Rectangle-1" x="15" y="30" width="56" height="34"></rect>
                    </g>
                </g>
                <g id="Group" transform="translate(11.000000, 15.000000)"></g>
            </g>
        </g>
    </g>
</svg>