<?xml version="1.0" encoding="utf-8"?>
<!-- Generator: Adobe Illustrator 16.0.0, SVG Export Plug-In . SVG Version: 6.00 Build 0)  -->
<!DOCTYPE svg PUBLIC "-//W3C//DTD SVG 1.1//EN" "http://www.w3.org/Graphics/SVG/1.1/DTD/svg11.dtd">
<svg version="1.1" id="Layer_1" xmlns:sketch="http://www.bohemiancoding.com/sketch/ns"
	 xmlns="http://www.w3.org/2000/svg" xmlns:xlink="http://www.w3.org/1999/xlink" x="0px" y="0px" width="100px" height="82px"
	 viewBox="0 0 100 82" enable-background="new 0 0 100 82" xml:space="preserve">
<title>logo 2</title>
<description>Created with Sketch.</description>
<g id="Shape_8_" sketch:type="MSShapeGroup">
	<g>
		<path fill="#010101" d="M94.408,23.46c-3.391-3.078-8.057-4.773-13.141-4.773c-1.849,0-3.4,0.271-4.694,0.596
			c0.015-1.216,0.017-2.487,0.017-3.82c0-3.507-2.229-8.428-12.854-11.944C56.879,1.249,47.843,0,38.295,0
			s-18.583,1.249-25.44,3.519C2.229,7.034,0,11.956,0,15.463c0,14.966,0.518,26.861,3.047,36.266
			c2.456,9.131,6.748,16.116,14.346,23.351C22.148,79.604,29.376,82,38.294,82s16.146-2.396,20.899-6.922
			c5.787-5.51,9.701-11.131,12.682-18.229c0.04-0.096,0.135-0.316,0.898-0.56c1.183-0.372,2.903-0.414,4.102-0.414
			c0.729,0,1.482,0.019,2.217,0.035c0.723,0.019,1.465,0.034,2.178,0.034c5.071,0,9.847-2.147,13.441-6.057
			C98.07,46.238,100,41.352,100,36.476C100,31.358,98.016,26.735,94.408,23.46z M28,38.419h-4.379v6.267
			c0,0.59,0.139,1.014,0.417,1.271c0.278,0.256,0.741,0.384,1.389,0.384H28V49h-2.813c-1.921,0-3.221-0.316-3.899-0.951
			c-0.679-0.635-1.018-1.811-1.018-3.529v-6.1H17v-2.66h3.271V32h3.35v3.759H28V38.419z M40.041,49l-2.547-4.376L34.959,49H31
			l4.792-6.777L31.382,36h3.959l2.153,3.877L39.659,36h3.959l-4.364,6.223L44,49H40.041z M57,38.419h-4.379v6.267
			c0,0.59,0.139,1.014,0.417,1.271c0.278,0.256,0.741,0.384,1.39,0.384H57V49h-2.812c-1.922,0-3.221-0.316-3.898-0.951
			c-0.679-0.635-1.018-1.811-1.018-3.529v-6.1H46v-2.66h3.271V32h3.35v3.759H57V38.419z M38.5,24C23.312,24,11,20.194,11,15.5
			S23.312,7,38.5,7C53.688,7,66,10.806,66,15.5S53.688,24,38.5,24z M82.827,44.441c-0.218,0.023-0.464,0.033-0.726,0.033
			c-1.229,0-2.875-0.203-4.455-0.203c-1.373,0-2.697,0.152-3.646,0.729c0.229-1.892,1.156-8.505,1.291-10.668
			C76.599,31.886,79.219,30,82.827,30C87.184,30,90,32.562,90,36.525C90,40.743,86.701,44.043,82.827,44.441z"/>
	</g>
</g>
<g id="Group" transform="translate(11.000000, 7.000000)">
</g>
</svg>
