<?xml version="1.0" encoding="UTF-8" standalone="no"?>
<!-- Created with Inkscape (http://www.inkscape.org/) -->

<svg
   xmlns:dc="http://purl.org/dc/elements/1.1/"
   xmlns:cc="http://creativecommons.org/ns#"
   xmlns:rdf="http://www.w3.org/1999/02/22-rdf-syntax-ns#"
   xmlns:svg="http://www.w3.org/2000/svg"
   xmlns="http://www.w3.org/2000/svg"
   version="1.1"
   width="92"
   height="74"
   viewBox="0 0 92 74"
   id="svg3037">
  <title
     id="title3039">Slice 1</title>
  <metadata
     id="metadata3049">
    <rdf:RDF>
      <cc:Work
         rdf:about="">
        <dc:format>image/svg+xml</dc:format>
        <dc:type
           rdf:resource="http://purl.org/dc/dcmitype/StillImage" />
        <dc:title>Slice 1</dc:title>
      </cc:Work>
    </rdf:RDF>
  </metadata>
  <description
     id="description3041">Created with Sketch (http://www.bohemiancoding.com/sketch)</description>
  <defs
     id="defs3043" />
  <g
     id="Page-1"
     style="fill:none;stroke:none">
    <path
       d="m 91.836,32.433 c 0.161741,8.419172 -7.587651,16.267434 -16.154832,15.259902 -3.84113,0.03266 -8.881444,-0.714845 -11.374977,2.926624 -3.229544,7.56893 -8.068311,14.758418 -14.859674,19.540789 -7.542774,4.273944 -16.90457,4.377057 -25.131741,2.258869 C 16.971786,70.442708 12.046695,64.038399 7.9614063,58.046156 0.6904743,46.236722 0.58821898,31.87847 0.21386701,18.45627 0.33826787,14.314413 -1.0756101,8.8814102 3.5314551,6.5561971 11.663997,1.6268259 21.512543,0.74796122 30.804672,0.22721191 41.834021,0.06553341 53.403563,0.68599829 63.481321,5.5986779 c 4.174765,1.5485005 5.649478,5.8035271 4.92606,9.8854281 -0.05903,2.556718 -0.88676,6.638003 3.081678,4.425871 7.139382,-2.840195 16.842807,-0.03647 19.508402,7.660175 0.568773,1.55351 0.839412,3.210199 0.838539,4.862848 z M 33.5,20 c 7.636629,-0.190537 15.737232,-0.513601 22.574669,-4.275284 5.242548,-3.748429 -2.58215,-7.4872497 -6.101422,-7.9062429 -10.772718,-2.4726452 -22.173776,-2.4726452 -32.946494,0 C 13.507481,8.2374663 5.6827831,11.976287 10.925331,15.724716 17.703612,19.479781 25.919229,19.813061 33.5,20 z m -13.914063,8.148437 c 0.346495,1.130769 -0.767788,3.722316 0.705228,3.726563 1.108521,0.309215 3.459518,-0.624047 3.783054,0.470152 0.408386,1.835804 -0.245063,2.609772 -2.115685,2.166567 -1.640456,-0.222721 -2.965511,-0.13004 -2.372597,1.880609 0.162237,1.854929 -0.392138,3.891786 0.427735,5.590094 1.071096,1.249752 4.638436,-0.882011 4.060547,1.55624 C 24.76556,45.65742 22.5584,44.877678 21.253305,45 c -3.693787,0.761305 -5.757902,-2.579856 -5.100961,-5.851863 0,-1.545473 0,-3.090945 0,-4.636418 -1.074972,-0.355651 -3.731229,0.869984 -3.351563,-0.940305 -0.672569,-2.099986 1.10322,-1.751614 2.585838,-1.696414 1.590224,0.159601 0.397004,-2.464241 0.765725,-3.526142 0.626768,-0.46097 2.470239,-0.07019 3.433593,-0.200421 z M 39.367187,31.875 c -1.472656,2.09375 -2.945312,4.1875 -4.417968,6.28125 1.601562,2.28125 3.203125,4.5625 4.804687,6.84375 -1.327532,-0.151088 -2.996635,0.292625 -4.126294,-0.203034 C 34.807731,43.391987 33.98785,41.987009 33.167969,40.582031 32.3125,42.054687 31.457031,43.527344 30.601562,45 c -1.138196,-0.14271 -3.363338,0.276399 -3.871861,-0.191776 1.57187,-2.217325 3.143741,-4.434649 4.715611,-6.651974 -1.488281,-2.09375 -2.976562,-4.1875 -4.464843,-6.28125 1.324474,0.152832 3.002558,-0.296002 4.122184,0.205377 0.688439,1.236229 1.376877,2.472457 2.065316,3.708685 0.730469,-1.304687 1.460937,-2.609375 2.191406,-3.914062 1.335937,0 2.671875,0 4.007812,0 z m 9.117188,-3.726563 c 0.346495,1.130769 -0.767788,3.722316 0.705228,3.726563 1.10852,0.309215 3.459518,-0.624047 3.783053,0.470152 0.408386,1.835804 -0.245063,2.609772 -2.115685,2.166567 -1.640456,-0.222721 -2.96551,-0.13004 -2.372596,1.880609 0.162237,1.854929 -0.392137,3.891785 0.427734,5.590094 1.071096,1.249752 4.638436,-0.882011 4.060547,1.55624 0.691341,2.118758 -1.515819,1.339016 -2.820914,1.461338 -3.693787,0.761304 -5.757902,-2.579856 -5.100961,-5.851863 0,-1.545473 0,-3.090945 0,-4.636418 -1.074971,-0.355651 -3.731228,0.869984 -3.351562,-0.940305 -0.672569,-2.099986 1.10322,-1.751614 2.585838,-1.696414 1.590222,0.159601 0.397003,-2.464242 0.765724,-3.526142 0.626768,-0.46097 2.470239,-0.07019 3.433594,-0.200421 z"
       id="Shape"
       style="fill:#010101" />
  </g>
</svg>
